<svg width="126" height="112" viewBox="0 0 126 112" fill="none" xmlns="http://www.w3.org/2000/svg">
<path d="M63 67.4001C69.296 67.4001 74.4 62.2961 74.4 56.0001C74.4 49.7041 69.296 44.6001 63 44.6001C56.704 44.6001 51.6 49.7041 51.6 56.0001C51.6 62.2961 56.704 67.4001 63 67.4001Z" fill="#61DAFB"/>
<path d="M106.3 37.2001C104.1 36.4001 101.8 35.6001 99.4 34.9001C100 32.5001 100.5 30.1001 100.9 27.8001C103 14.6001 100.7 5.3001 94.3 1.7001C92.4 0.600097 90.3 0.100098 87.9 0.100098C80.9 0.100098 72 5.3001 63 14.0001C54 5.3001 45.1 0.100098 38.1 0.100098C35.7 0.100098 33.6 0.600097 31.7 1.7001C25.3 5.4001 23 14.7001 25.1 27.8001C25.5 30.1001 26 32.5001 26.6 34.9001C24.2 35.6001 21.9 36.3001 19.7 37.2001C7.2 42.0001 0.400002 48.6001 0.400002 56.0001C0.400002 63.4001 7.3 70.0001 19.7 74.8001C21.9 75.6001 24.2 76.4001 26.6 77.1001C26 79.5001 25.5 81.9001 25.1 84.2001C23 97.4001 25.3 106.7 31.7 110.3C33.6 111.4 35.7 111.9 38.1 111.9C45.2 111.9 54.1 106.7 63 98.0001C72 106.7 80.9 111.9 87.9 111.9C90.3 111.9 92.4 111.4 94.3 110.3C100.7 106.6 103 97.3001 100.9 84.2001C100.5 81.9001 100 79.5001 99.4 77.1001C101.8 76.4001 104.1 75.7001 106.3 74.8001C118.8 70.0001 125.6 63.4001 125.6 56.0001C125.6 48.6001 118.8 42.0001 106.3 37.2001ZM91.5 6.7001C95.6 9.1001 97 16.5001 95.3 27.0001C95 29.1001 94.5 31.3001 93.9 33.6001C88.7 32.4001 83.2 31.6001 77.4 31.1001C74 26.3001 70.5 22.0001 67 18.1001C74.4 10.8001 81.9 5.8001 88 5.8001C89.3 5.8001 90.5 6.1001 91.5 6.7001ZM80.3 66.0001C78.5 69.2001 76.4 72.4001 74.2 75.6001C70.5 75.9001 66.8 76.0001 63 76.0001C59.1 76.0001 55.4 75.9001 51.8 75.6001C49.6 72.4001 47.6 69.2001 45.8 66.0001C43.9 62.7001 42.1 59.3001 40.5 56.0001C42.1 52.7001 43.9 49.3001 45.8 46.0001C47.6 42.8001 49.7 39.6001 51.9 36.4001C55.6 36.1001 59.3 36.0001 63.1 36.0001C67 36.0001 70.7 36.1001 74.3 36.4001C76.5 39.6001 78.5 42.8001 80.3 46.0001C82.2 49.3001 84 52.7001 85.6 56.0001C83.9 59.3001 82.2 62.6001 80.3 66.0001ZM88.6 62.7001C90.1 66.2001 91.3 69.6001 92.4 73.0001C89 73.8001 85.4 74.4001 81.6 74.9001C82.8 73.0001 84.1 71.0001 85.2 68.9001C86.4 66.8001 87.5 64.7001 88.6 62.7001ZM63 89.8001C60.6 87.2001 58.3 84.4001 56.1 81.5001C58.4 81.6001 60.7 81.7001 63 81.7001C65.3 81.7001 67.6 81.6001 69.9 81.5001C67.7 84.4001 65.4 87.2001 63 89.8001ZM44.4 74.8001C40.6 74.3001 37 73.7001 33.6 72.9001C34.7 69.6001 35.9 66.1001 37.4 62.6001C38.5 64.6001 39.6 66.7001 40.8 68.7001C42 70.9001 43.2 72.8001 44.4 74.8001ZM37.4 49.3001C35.9 45.8001 34.7 42.4001 33.6 39.0001C37 38.2001 40.6 37.6001 44.4 37.1001C43.2 39.0001 41.9 41.0001 40.8 43.1001C39.6 45.2001 38.5 47.3001 37.4 49.3001ZM63 22.2001C65.4 24.8001 67.7 27.6001 69.9 30.5001C67.6 30.4001 65.3 30.3001 63 30.3001C60.7 30.3001 58.4 30.4001 56.1 30.5001C58.3 27.6001 60.6 24.8001 63 22.2001ZM85.2 43.2001L81.6 37.2001C85.4 37.7001 89 38.3001 92.4 39.1001C91.3 42.4001 90.1 45.9001 88.6 49.4001C87.5 47.3001 86.4 45.2001 85.2 43.2001ZM30.7 27.0001C29 16.5001 30.4 9.1001 34.5 6.7001C35.5 6.1001 36.7 5.8001 38 5.8001C44 5.8001 51.5 10.7001 59 18.1001C55.5 21.9001 52 26.3001 48.6 31.1001C42.8 31.6001 37.3 32.5001 32.1 33.6001C31.5 31.3001 31.1 29.1001 30.7 27.0001ZM6 56.0001C6 51.3001 11.7 46.3001 21.7 42.6001C23.7 41.8001 25.9 41.1001 28.1 40.5001C29.7 45.5001 31.7 50.8001 34.1 56.1001C31.7 61.4001 29.6 66.6001 28.1 71.6001C14.3 67.6001 6 61.6001 6 56.0001ZM34.5 105.3C30.4 102.9 29 95.5001 30.7 85.0001C31 82.9001 31.5 80.7001 32.1 78.4001C37.3 79.6001 42.8 80.4001 48.6 80.9001C52 85.7001 55.5 90.0001 59 93.9001C51.6 101.2 44.1 106.2 38 106.2C36.7 106.2 35.5 105.9 34.5 105.3ZM95.3 85.0001C97 95.5001 95.6 102.9 91.5 105.3C90.5 105.9 89.3 106.2 88 106.2C82 106.2 74.5 101.3 67 93.9001C70.5 90.1001 74 85.7001 77.4 80.9001C83.2 80.4001 88.7 79.5001 93.9 78.4001C94.5 80.7001 94.9 82.9001 95.3 85.0001ZM104.3 69.4001C102.3 70.2001 100.1 70.9001 97.9 71.5001C96.3 66.5001 94.3 61.2001 91.9 55.9001C94.3 50.6001 96.4 45.4001 97.9 40.4001C111.7 44.4001 120 50.4001 120 56.0001C120 60.7001 114.2 65.7001 104.3 69.4001Z" fill="#61DAFB"/>
</svg>
