<svg width="128" height="78" viewBox="0 0 128 78" fill="none" xmlns="http://www.w3.org/2000/svg">
<path d="M64.004 0.602051C46.937 0.602051 36.274 9.13205 32.004 26.1991C38.402 17.6681 45.871 14.4691 54.402 16.6021C59.273 17.8161 62.754 21.3481 66.609 25.2621C72.883 31.6291 80.145 39.0001 96.004 39.0001C113.07 39.0001 123.734 30.469 128.004 13.3981C121.605 21.9341 114.137 25.1331 105.605 23.0001C100.735 21.7851 97.258 18.2541 93.398 14.3401C87.128 7.97305 79.868 0.602051 64.004 0.602051ZM32.004 39.0001C14.938 39.0001 4.27403 47.5311 0.00402832 64.6021C6.40203 56.0661 13.87 52.8671 22.402 55.0001C27.273 56.2151 30.754 59.7461 34.609 63.6601C40.883 70.0271 48.145 77.3981 64.004 77.3981C81.07 77.3981 91.734 68.8681 96.004 51.8011C89.605 60.3321 82.137 63.5311 73.605 61.3981C68.735 60.1841 65.258 56.6521 61.398 52.7381C55.128 46.3711 47.868 39.0001 32.004 39.0001Z" fill="#38BDF8"/>
</svg>
